<?xml version="1.0" standalone="no"?>
<!DOCTYPE svg PUBLIC "-//W3C//DTD SVG 20010904//EN"
 "http://www.w3.org/TR/2001/REC-SVG-20010904/DTD/svg10.dtd">
<svg version="1.0" xmlns="http://www.w3.org/2000/svg"
 width="98.000000pt" height="42.000000pt" viewBox="0 0 98.000000 42.000000"
 preserveAspectRatio="xMidYMid meet">

<g transform="translate(0.000000,42.000000) scale(0.100000,-0.100000)"
fill="#000000" stroke="none">
<path d="M240 354 c-144 -62 -196 -149 -134 -223 21 -25 23 -34 14 -51 -6 -11
-7 -20 -1 -20 5 0 12 7 15 16 5 12 13 14 38 8 54 -12 82 -6 110 25 28 31 52
97 63 175 7 45 7 46 -20 46 -18 0 -28 6 -32 20 -6 24 -8 24 -53 4z m44 -73 c3
-38 4 -75 2 -83 -2 -7 -7 -25 -10 -40 -8 -33 -57 -62 -92 -54 -13 4 -24 11
-24 16 0 13 43 30 75 30 13 0 27 5 31 11 5 8 -6 10 -35 7 -22 -2 -41 -3 -41
-2 0 19 18 34 39 34 14 0 33 5 41 10 11 7 7 10 -18 10 -38 0 -40 23 -4 28 25
4 30 22 6 22 -13 0 -14 3 -5 13 6 8 8 17 4 20 -3 4 -12 -1 -19 -11 -8 -10 -13
-12 -14 -4 0 6 -4 12 -10 12 -5 0 -7 -13 -4 -29 8 -38 -10 -47 -26 -13 -7 15
-15 22 -17 15 -2 -6 2 -24 10 -40 14 -28 13 -53 -3 -53 -4 0 -13 14 -20 30 -7
17 -17 30 -22 30 -6 0 -7 -8 -3 -17 24 -59 28 -72 21 -89 -7 -18 -9 -17 -32 9
-28 32 -30 56 -9 97 16 31 128 104 166 109 3 1 9 -30 13 -68z m45 2 c-1 -16
-5 -39 -9 -53 -8 -25 -8 -24 -9 5 -1 17 -4 40 -7 53 -5 16 -2 22 10 22 11 0
16 -8 15 -27z"/>
<path d="M452 277 c-18 -22 -45 -98 -37 -105 4 -4 10 -1 12 6 6 15 55 16 71 0
24 -24 25 3 2 53 -27 57 -34 64 -48 46z m18 -47 c0 -5 -5 -10 -11 -10 -5 0 -7
5 -4 10 3 6 8 10 11 10 2 0 4 -4 4 -10z"/>
<path d="M777 284 c-4 -4 1 -19 10 -35 16 -26 16 -29 0 -47 -20 -22 -22 -32
-4 -32 7 0 18 9 25 21 l13 21 25 -23 c30 -28 42 -18 20 17 -16 23 -16 27 -2
43 17 19 21 41 8 41 -5 0 -17 -9 -27 -20 l-18 -20 -22 20 c-12 11 -24 17 -28
14z"/>
<path d="M540 191 c0 -34 4 -61 10 -61 6 0 10 9 10 19 0 12 8 21 21 23 56 8
48 70 -10 76 l-31 3 0 -60z m50 18 c0 -5 -7 -9 -15 -9 -15 0 -20 12 -9 23 8 8
24 -1 24 -14z"/>
<path d="M630 190 c0 -47 3 -60 15 -60 8 0 15 9 15 20 0 13 7 20 20 20 27 0
44 34 30 60 -8 14 -21 20 -45 20 l-35 0 0 -60z m60 19 c0 -5 -7 -9 -15 -9 -15
0 -20 12 -9 23 8 8 24 -1 24 -14z"/>
</g>
</svg>
